<?xml version="1.0" encoding="UTF-8"?>
<!DOCTYPE svg PUBLIC "-//W3C//DTD SVG 1.1//EN" "http://www.w3.org/Graphics/SVG/1.1/DTD/svg11.dtd">
<svg xmlns="http://www.w3.org/2000/svg" version="1.1" width="312px" height="312px" style="shape-rendering:geometricPrecision; text-rendering:geometricPrecision; image-rendering:optimizeQuality; fill-rule:evenodd; clip-rule:evenodd" xmlns:xlink="http://www.w3.org/1999/xlink">
<g><path style="opacity:1" fill="#00bc8e" d="M -0.5,-0.5 C 103.5,-0.5 207.5,-0.5 311.5,-0.5C 311.5,103.5 311.5,207.5 311.5,311.5C 207.5,311.5 103.5,311.5 -0.5,311.5C -0.5,207.5 -0.5,103.5 -0.5,-0.5 Z"/></g>
<g><path style="opacity:1" fill="#002c28" d="M 117.5,50.5 C 118.552,50.3505 119.552,50.5172 120.5,51C 129.325,57.5793 138.325,63.9127 147.5,70C 151.668,72.8207 151.501,75.3207 147,77.5C 143.167,75 139.333,72.5 135.5,70C 134.216,69.3162 133.049,69.4829 132,70.5C 127.697,77.6343 123.197,84.6343 118.5,91.5C 132.314,107.583 131.647,123.083 116.5,138C 99.0295,148.92 84.1962,146.087 72,129.5C 63.2612,109.465 68.7612,94.632 88.5,85C 96.8364,82.5282 104.836,83.3615 112.5,87.5C 117.678,80.1485 122.678,72.6485 127.5,65C 123.791,61.7224 119.957,58.5558 116,55.5C 115.387,53.5048 115.887,51.8381 117.5,50.5 Z"/></g>
<g><path style="opacity:1" fill="#002c28" d="M 181.5,75.5 C 183.081,77.1417 183.747,79.1417 183.5,81.5C 182.399,82.5983 181.066,82.765 179.5,82C 177.695,81.028 176.028,79.8613 174.5,78.5C 165.71,91.2469 157.043,104.08 148.5,117C 150.705,119.54 153.205,121.707 156,123.5C 155.943,126.965 154.109,128.131 150.5,127C 144.003,125.141 141.17,120.975 142,114.5C 151.082,101.338 159.915,88.005 168.5,74.5C 166.613,72.9596 164.78,71.2929 163,69.5C 162.333,68.5 162.333,67.5 163,66.5C 166.429,64.9865 169.429,65.6532 172,68.5C 173.715,66.2406 175.548,64.0739 177.5,62C 179.641,61.1163 181.307,61.6163 182.5,63.5C 180.889,66.3872 179.556,69.3872 178.5,72.5C 178.868,74.1753 179.868,75.1753 181.5,75.5 Z"/></g>
<g><path style="opacity:1" fill="#008061" d="M 181.5,75.5 C 182.496,75.4142 183.329,75.7476 184,76.5C 184.78,78.3869 184.613,80.0536 183.5,81.5C 183.747,79.1417 183.081,77.1417 181.5,75.5 Z"/></g>
<g><path style="opacity:1" fill="#002c28" d="M 203.5,83.5 C 221.644,82.4867 233.811,90.4867 240,107.5C 241.44,126.121 233.273,138.288 215.5,144C 197.296,145.143 185.462,136.976 180,119.5C 179.041,101.75 186.874,89.7499 203.5,83.5 Z"/></g>
<g><path style="opacity:1" fill="#00b88c" d="M 91.5,91.5 C 95.8461,91.3343 100.179,91.501 104.5,92C 106.002,92.5831 107.335,93.4164 108.5,94.5C 104.196,101.303 99.6958,107.97 95,114.5C 94.5065,116.134 94.3398,117.801 94.5,119.5C 96.604,119.799 98.604,119.466 100.5,118.5C 104.81,111.534 109.477,104.867 114.5,98.5C 117.322,100.837 119.155,103.837 120,107.5C 121.833,128.333 112.333,137.833 91.5,136C 83.6928,133.526 78.5261,128.359 76,120.5C 73.3512,106.455 78.5179,96.7887 91.5,91.5 Z"/></g>
<g><path style="opacity:1" fill="#00ba8c" d="M 203.5,91.5 C 224.344,90.1767 233.844,99.8434 232,120.5C 225.083,135.371 213.916,139.871 198.5,134C 187.272,125.848 184.439,115.348 190,102.5C 193.336,97.2685 197.836,93.6018 203.5,91.5 Z"/></g>
<g><path style="opacity:1" fill="#002221" d="M 174.5,154.5 C 176.484,169.798 177.151,185.464 176.5,201.5C 168.733,203.973 161.066,203.807 153.5,201C 145.742,192.768 144.575,183.602 150,173.5C 154.926,168.225 160.592,167.225 167,170.5C 167.172,165.798 167.672,161.132 168.5,156.5C 170.657,155.95 172.657,155.283 174.5,154.5 Z"/></g>
<g><path style="opacity:1" fill="#002725" d="M 40.5,159.5 C 52.5,159.5 64.5,159.5 76.5,159.5C 76.5,162.167 76.5,164.833 76.5,167.5C 72.1667,167.5 67.8333,167.5 63.5,167.5C 63.5,179.167 63.5,190.833 63.5,202.5C 60.1667,202.5 56.8333,202.5 53.5,202.5C 53.5,190.833 53.5,179.167 53.5,167.5C 49.1667,167.5 44.8333,167.5 40.5,167.5C 40.5,164.833 40.5,162.167 40.5,159.5 Z"/></g>
<g><path style="opacity:1" fill="#002322" d="M 90.5,182.5 C 91.5676,183.434 92.901,183.768 94.5,183.5C 94.7373,182.209 94.404,181.209 93.5,180.5C 93.4894,178.983 92.8228,177.816 91.5,177C 87.4425,176.233 83.4425,176.4 79.5,177.5C 78.3526,175.235 78.1859,172.902 79,170.5C 86.2968,167.497 93.2968,168.164 100,172.5C 100.667,173.833 101.333,175.167 102,176.5C 102.832,184.853 102.665,193.187 101.5,201.5C 95.2755,203.269 88.9422,203.769 82.5,203C 77.45,201.566 75.1166,198.233 75.5,193C 75.0983,188.8 76.765,185.8 80.5,184C 83.7568,182.957 87.0901,182.457 90.5,182.5 Z"/></g>
<g><path style="opacity:1" fill="#002323" d="M 117.5,168.5 C 125.142,167.102 131.642,169.102 137,174.5C 138.445,183.726 138.945,193.06 138.5,202.5C 135.5,202.5 132.5,202.5 129.5,202.5C 129.666,194.493 129.5,186.493 129,178.5C 126.174,176.66 123.007,175.994 119.5,176.5C 119.5,185.167 119.5,193.833 119.5,202.5C 116.833,202.5 114.167,202.5 111.5,202.5C 111.168,191.813 111.501,181.146 112.5,170.5C 114.336,169.972 116.003,169.306 117.5,168.5 Z"/></g>
<g><path style="opacity:1" fill="#002322" d="M 194.5,168.5 C 208.845,168.18 215.178,175.18 213.5,189.5C 206.468,189.17 199.468,189.503 192.5,190.5C 193.648,192.149 194.981,193.649 196.5,195C 200.89,195.772 205.223,195.606 209.5,194.5C 211.83,197.185 211.83,199.685 209.5,202C 191.682,206.503 183.182,199.67 184,181.5C 185.534,175.477 189.034,171.144 194.5,168.5 Z"/></g>
<g><path style="opacity:1" fill="#002222" d="M 227.5,168.5 C 233.269,168.085 238.769,169.085 244,171.5C 249.747,167.748 255.581,167.581 261.5,171C 263.041,172.579 264.208,174.413 265,176.5C 265.5,185.16 265.666,193.827 265.5,202.5C 262.5,202.5 259.5,202.5 256.5,202.5C 256.666,194.493 256.5,186.493 256,178.5C 253.582,176.32 250.916,175.987 248,177.5C 247.5,185.827 247.334,194.16 247.5,202.5C 244.833,202.5 242.167,202.5 239.5,202.5C 239.901,194.415 239.401,186.415 238,178.5C 235.519,176.686 232.685,176.02 229.5,176.5C 229.5,185.167 229.5,193.833 229.5,202.5C 226.833,202.5 224.167,202.5 221.5,202.5C 221.5,191.833 221.5,181.167 221.5,170.5C 223.786,170.405 225.786,169.738 227.5,168.5 Z"/></g>
<g><path style="opacity:1" fill="#00b78a" d="M 158.5,176.5 C 161.448,176.223 164.281,176.556 167,177.5C 167.499,183.491 167.666,189.491 167.5,195.5C 157.027,195.953 153.194,190.953 156,180.5C 156.662,179.016 157.496,177.683 158.5,176.5 Z"/></g>
<g><path style="opacity:1" fill="#00b287" d="M 195.5,176.5 C 200.796,175.473 204.13,177.473 205.5,182.5C 201.217,183.492 196.884,183.826 192.5,183.5C 192.688,180.794 193.688,178.461 195.5,176.5 Z"/></g>
<g><path style="opacity:1" fill="#006850" d="M 93.5,180.5 C 94.404,181.209 94.7373,182.209 94.5,183.5C 92.901,183.768 91.5676,183.434 90.5,182.5C 92.1788,182.715 93.1788,182.048 93.5,180.5 Z"/></g>
<g><path style="opacity:1" fill="#00b286" d="M 85.5,188.5 C 88.5,188.5 91.5,188.5 94.5,188.5C 94.5,190.833 94.5,193.167 94.5,195.5C 91.4816,195.665 88.4816,195.498 85.5,195C 82.9387,192.844 82.9387,190.677 85.5,188.5 Z"/></g>
<g><path style="opacity:1" fill="#008d6b" d="M 180.5,216.5 C 181.919,215.549 183.585,215.216 185.5,215.5C 185.5,222.5 185.5,229.5 185.5,236.5C 184.509,230.021 184.176,223.354 184.5,216.5C 183.167,216.5 181.833,216.5 180.5,216.5 Z"/></g>
<g><path style="opacity:1" fill="#002523" d="M 119.5,216.5 C 120.833,216.5 122.167,216.5 123.5,216.5C 123.187,219.247 123.52,221.914 124.5,224.5C 128.258,223.362 131.425,224.362 134,227.5C 134.499,232.155 134.666,236.821 134.5,241.5C 132.833,241.5 131.167,241.5 129.5,241.5C 129.666,237.154 129.499,232.821 129,228.5C 127.301,227.594 125.467,227.261 123.5,227.5C 123.5,232.167 123.5,236.833 123.5,241.5C 122.167,241.5 120.833,241.5 119.5,241.5C 119.5,233.167 119.5,224.833 119.5,216.5 Z"/></g>
<g><path style="opacity:1" fill="#002322" d="M 180.5,216.5 C 181.833,216.5 183.167,216.5 184.5,216.5C 184.176,223.354 184.509,230.021 185.5,236.5C 188.026,238.202 187.859,239.868 185,241.5C 183.527,241.097 182.194,240.43 181,239.5C 180.5,231.841 180.334,224.174 180.5,216.5 Z"/></g>
<g><path style="opacity:1" fill="#002222" d="M 67.5,217.5 C 69.1667,217.5 70.8333,217.5 72.5,217.5C 72.5,219.167 72.5,220.833 72.5,222.5C 74.5,222.5 76.5,222.5 78.5,222.5C 78.5,223.833 78.5,225.167 78.5,226.5C 76.5,226.5 74.5,226.5 72.5,226.5C 72.335,229.85 72.5017,233.183 73,236.5C 74.6995,237.406 76.5328,237.739 78.5,237.5C 78.5,238.833 78.5,240.167 78.5,241.5C 75.4816,241.665 72.4816,241.498 69.5,241C 69,240.5 68.5,240 68,239.5C 67.501,235.179 67.3343,230.846 67.5,226.5C 66.5,226.5 65.5,226.5 64.5,226.5C 64.5,225.167 64.5,223.833 64.5,222.5C 65.5,222.5 66.5,222.5 67.5,222.5C 67.5,220.833 67.5,219.167 67.5,217.5 Z"/></g>
<g><path style="opacity:1" fill="#002423" d="M 230.5,223.5 C 232.167,223.5 233.833,223.5 235.5,223.5C 237.786,238.117 240.12,238.117 242.5,223.5C 244.199,223.34 245.866,223.506 247.5,224C 245.201,230.562 242.701,237.062 240,243.5C 237.83,247.26 234.83,248.26 231,246.5C 230.517,245.552 230.351,244.552 230.5,243.5C 232.199,243.66 233.866,243.494 235.5,243C 236.059,242.275 236.392,241.442 236.5,240.5C 234.096,234.955 232.096,229.288 230.5,223.5 Z"/></g>
<g><path style="opacity:1" fill="#002624" d="M 86.5,223.5 C 94.5195,222.853 98.1862,226.519 97.5,234.5C 93.774,234.177 90.1073,234.511 86.5,235.5C 86.7093,236.086 87.0426,236.586 87.5,237C 90.1667,237.333 92.8333,237.667 95.5,238C 96.8146,239.395 96.4812,240.395 94.5,241C 84.4273,242.717 80.2607,238.55 82,228.5C 83.1932,226.503 84.6932,224.836 86.5,223.5 Z"/></g>
<g><path style="opacity:1" fill="#002926" d="M 106.5,223.5 C 108.527,223.338 110.527,223.505 112.5,224C 113.973,224.71 114.64,225.876 114.5,227.5C 106.704,226.405 104.37,229.572 107.5,237C 110.651,236.988 113.318,237.988 115.5,240C 111.031,242.254 106.864,241.754 103,238.5C 100.204,232.452 101.371,227.452 106.5,223.5 Z"/></g>
<g><path style="opacity:1" fill="#002725" d="M 141.5,223.5 C 153.959,223.174 158.292,229.174 154.5,241.5C 152.833,241.5 151.167,241.5 149.5,241.5C 149.666,237.154 149.499,232.821 149,228.5C 147.301,227.594 145.467,227.261 143.5,227.5C 143.5,232.167 143.5,236.833 143.5,241.5C 142.167,241.5 140.833,241.5 139.5,241.5C 138.947,235.208 139.614,229.208 141.5,223.5 Z"/></g>
<g><path style="opacity:1" fill="#002725" d="M 163.5,223.5 C 173.358,223.515 176.858,228.181 174,237.5C 168.474,243.158 163.474,242.825 159,236.5C 157.379,230.923 158.879,226.589 163.5,223.5 Z"/></g>
<g><path style="opacity:1" fill="#002725" d="M 195.5,223.5 C 205.358,223.515 208.858,228.181 206,237.5C 200.474,243.158 195.474,242.825 191,236.5C 189.379,230.923 190.879,226.589 195.5,223.5 Z"/></g>
<g><path style="opacity:1" fill="#002825" d="M 216.5,223.5 C 220.179,223.724 223.846,224.058 227.5,224.5C 227.666,230.176 227.499,235.843 227,241.5C 223.94,246.8 219.44,248.467 213.5,246.5C 212.614,245.675 212.281,244.675 212.5,243.5C 215.518,243.665 218.518,243.498 221.5,243C 222.731,241.817 222.731,240.651 221.5,239.5C 217.474,241.326 214.307,240.326 212,236.5C 210.379,230.923 211.879,226.589 216.5,223.5 Z"/></g>
<g><path style="opacity:1" fill="#00b085" d="M 87.5,227.5 C 90.2776,227.022 92.2776,228.022 93.5,230.5C 91.2573,231.474 88.924,231.808 86.5,231.5C 86.4326,230.041 86.7659,228.708 87.5,227.5 Z"/></g>
<g><path style="opacity:1" fill="#00b68a" d="M 164.5,227.5 C 169.989,227.504 171.822,230.171 170,235.5C 168.267,237.602 166.267,237.935 164,236.5C 163.264,233.408 163.431,230.408 164.5,227.5 Z"/></g>
<g><path style="opacity:1" fill="#00b68a" d="M 196.5,227.5 C 201.989,227.504 203.822,230.171 202,235.5C 200.267,237.602 198.267,237.935 196,236.5C 195.264,233.408 195.431,230.408 196.5,227.5 Z"/></g>
<g><path style="opacity:1" fill="#00b589" d="M 217.5,227.5 C 219.167,227.5 220.833,227.5 222.5,227.5C 222.5,230.5 222.5,233.5 222.5,236.5C 220.533,236.739 218.699,236.406 217,235.5C 216.278,232.739 216.445,230.073 217.5,227.5 Z"/></g>
</svg>
