<?xml version="1.0" encoding="UTF-8"?>
<!DOCTYPE svg PUBLIC "-//W3C//DTD SVG 1.1//EN" "http://www.w3.org/Graphics/SVG/1.1/DTD/svg11.dtd">
<svg xmlns="http://www.w3.org/2000/svg" version="1.1" width="930px" height="932px" style="shape-rendering:geometricPrecision; text-rendering:geometricPrecision; image-rendering:optimizeQuality; fill-rule:evenodd; clip-rule:evenodd" xmlns:xlink="http://www.w3.org/1999/xlink">
<g><path style="opacity:0.944" fill="#090502" d="M 461.5,59.5 C 465.819,58.7992 469.486,59.9659 472.5,63C 507.333,93.1667 542.167,123.333 577,153.5C 576.686,158.463 575.519,163.296 573.5,168C 585.88,271.206 598.547,374.373 611.5,477.5C 630.1,486.599 646.6,498.599 661,513.5C 673.841,528.183 682.174,545.183 686,564.5C 715.257,549.298 745.423,547.464 776.5,559C 802.089,568.608 822.256,584.775 837,607.5C 842.183,618.233 844.85,629.566 845,641.5C 891.838,652.188 913.005,681.521 908.5,729.5C 612.833,729.5 317.167,729.5 21.5,729.5C 16.995,681.521 38.1617,652.188 85,641.5C 85.1801,624.29 90.5134,608.957 101,595.5C 132.542,560.429 171.708,546.595 218.5,554C 227.49,556.329 235.99,559.829 244,564.5C 250.853,534.279 267.019,510.446 292.5,493C 300.671,487.078 309.337,481.911 318.5,477.5C 331.453,374.373 344.12,271.206 356.5,168C 354.481,163.296 353.314,158.463 353,153.5C 389.332,122.267 425.499,90.9338 461.5,59.5 Z M 443.5,138.5 C 444.166,145.993 444.5,153.659 444.5,161.5C 442.735,248.858 440.735,336.024 438.5,423C 425.843,425.577 415.01,431.41 406,440.5C 411.78,359.029 417.613,277.529 423.5,196C 423.333,193.167 423.167,190.333 423,187.5C 421.274,186.424 419.441,186.257 417.5,187C 410.039,192.793 402.872,198.959 396,205.5C 387.247,294.118 378.913,382.785 371,471.5C 366.418,472.802 361.585,473.469 356.5,473.5C 351.833,473.333 347.167,473.167 342.5,473C 355.866,377.908 369.033,282.742 382,187.5C 402.976,171.683 423.476,155.35 443.5,138.5 Z M 485.5,138.5 C 506.171,155 527.004,171.334 548,187.5C 560.967,282.742 574.134,377.908 587.5,473C 582.833,473.167 578.167,473.333 573.5,473.5C 568.415,473.469 563.582,472.802 559,471.5C 551.087,382.785 542.753,294.118 534,205.5C 527.128,198.959 519.961,192.793 512.5,187C 510.559,186.257 508.726,186.424 507,187.5C 511.647,270.898 517.481,354.231 524.5,437.5C 524.333,438.5 524.167,439.5 524,440.5C 514.99,431.41 504.157,425.577 491.5,423C 488.932,328.363 486.932,233.529 485.5,138.5 Z"/></g>
<g><path style="opacity:1" fill="#fdfdfd" d="M 463.5,66.5 C 464.873,66.3433 466.207,66.51 467.5,67C 501.667,96.5 535.833,126 570,155.5C 568.77,161.389 568.436,167.389 569,173.5C 581.333,276.5 593.667,379.5 606,482.5C 626.154,491.647 643.821,504.314 659,520.5C 670.141,535.453 677.475,552.12 681,570.5C 681.519,571.516 682.353,572.182 683.5,572.5C 711.719,554.779 741.386,551.946 772.5,564C 794.931,572.281 813.431,585.781 828,604.5C 836.221,617.325 840.054,631.325 839.5,646.5C 883.665,653.722 904.665,679.555 902.5,724C 610.597,724.833 318.764,724.666 27,723.5C 25.5224,679.46 46.5224,653.793 90,646.5C 90.9049,620.189 101.738,599.023 122.5,583C 142.016,569.048 163.683,560.381 187.5,557C 198.007,556.12 208.34,557.12 218.5,560C 228.223,563.363 237.557,567.53 246.5,572.5C 247.647,572.182 248.481,571.516 249,570.5C 254.123,540.742 268.956,517.242 293.5,500C 303.128,493.268 313.295,487.435 324,482.5C 336.333,379.5 348.667,276.5 361,173.5C 361.564,167.389 361.23,161.389 360,155.5C 394.397,125.594 428.897,95.9277 463.5,66.5 Z M 443.5,138.5 C 423.476,155.35 402.976,171.683 382,187.5C 369.033,282.742 355.866,377.908 342.5,473C 347.167,473.167 351.833,473.333 356.5,473.5C 361.585,473.469 366.418,472.802 371,471.5C 378.913,382.785 387.247,294.118 396,205.5C 402.872,198.959 410.039,192.793 417.5,187C 419.441,186.257 421.274,186.424 423,187.5C 423.167,190.333 423.333,193.167 423.5,196C 417.613,277.529 411.78,359.029 406,440.5C 415.01,431.41 425.843,425.577 438.5,423C 440.735,336.024 442.735,248.858 444.5,161.5C 444.5,153.659 444.166,145.993 443.5,138.5 Z M 485.5,138.5 C 486.932,233.529 488.932,328.363 491.5,423C 504.157,425.577 514.99,431.41 524,440.5C 524.167,439.5 524.333,438.5 524.5,437.5C 517.481,354.231 511.647,270.898 507,187.5C 508.726,186.424 510.559,186.257 512.5,187C 519.961,192.793 527.128,198.959 534,205.5C 542.753,294.118 551.087,382.785 559,471.5C 563.582,472.802 568.415,473.469 573.5,473.5C 578.167,473.333 582.833,473.167 587.5,473C 574.134,377.908 560.967,282.742 548,187.5C 527.004,171.334 506.171,155 485.5,138.5 Z"/></g>
<g><path style="opacity:0.9" fill="#010101" d="M 446.5,128.5 C 447.822,128.33 448.989,128.663 450,129.5C 448.1,228.488 446.1,327.488 444,426.5C 430.179,430.329 418.012,437.162 407.5,447C 405.235,448.118 402.901,448.951 400.5,449.5C 405.812,367.482 411.479,285.482 417.5,203.5C 417.167,201.167 416.833,198.833 416.5,196.5C 411.317,200.26 406.317,204.26 401.5,208.5C 392.192,298.05 383.692,387.717 376,477.5C 363.246,478.489 350.413,478.822 337.5,478.5C 350.057,380.1 363.224,281.766 377,183.5C 400.641,165.684 423.808,147.35 446.5,128.5 Z M 443.5,138.5 C 423.476,155.35 402.976,171.683 382,187.5C 369.033,282.742 355.866,377.908 342.5,473C 347.167,473.167 351.833,473.333 356.5,473.5C 361.585,473.469 366.418,472.802 371,471.5C 378.913,382.785 387.247,294.118 396,205.5C 402.872,198.959 410.039,192.793 417.5,187C 419.441,186.257 421.274,186.424 423,187.5C 423.167,190.333 423.333,193.167 423.5,196C 417.613,277.529 411.78,359.029 406,440.5C 415.01,431.41 425.843,425.577 438.5,423C 440.735,336.024 442.735,248.858 444.5,161.5C 444.5,153.659 444.166,145.993 443.5,138.5 Z"/></g>
<g><path style="opacity:0.9" fill="#010101" d="M 480.5,128.5 C 483.14,128.954 485.473,130.121 487.5,132C 509.167,149.167 530.833,166.333 552.5,183.5C 566.767,281.704 580.101,380.037 592.5,478.5C 579.587,478.822 566.754,478.489 554,477.5C 546.308,387.717 537.808,298.05 528.5,208.5C 523.683,204.26 518.683,200.26 513.5,196.5C 512.782,206.819 512.949,217.152 514,227.5C 519.601,301.477 524.768,375.477 529.5,449.5C 527.099,448.951 524.765,448.118 522.5,447C 511.988,437.162 499.821,430.329 486,426.5C 484.159,329.656 481.993,232.823 479.5,136C 479.555,133.413 479.889,130.913 480.5,128.5 Z M 485.5,138.5 C 486.932,233.529 488.932,328.363 491.5,423C 504.157,425.577 514.99,431.41 524,440.5C 524.167,439.5 524.333,438.5 524.5,437.5C 517.481,354.231 511.647,270.898 507,187.5C 508.726,186.424 510.559,186.257 512.5,187C 519.961,192.793 527.128,198.959 534,205.5C 542.753,294.118 551.087,382.785 559,471.5C 563.582,472.802 568.415,473.469 573.5,473.5C 578.167,473.333 582.833,473.167 587.5,473C 574.134,377.908 560.967,282.742 548,187.5C 527.004,171.334 506.171,155 485.5,138.5 Z"/></g>
<g><path style="opacity:1" fill="#263140" d="M 388.5,523.5 C 394.176,523.334 399.843,523.501 405.5,524C 412.237,525.736 416.737,529.903 419,536.5C 419.333,547.833 419.667,559.167 420,570.5C 424.045,576.029 422.712,579.695 416,581.5C 412.984,579.983 410.818,577.65 409.5,574.5C 399.36,583.831 388.527,584.831 377,577.5C 370.387,565.017 373.22,555.517 385.5,549C 393.519,548.39 401.519,548.557 409.5,549.5C 410.819,534.656 404.153,528.823 389.5,532C 385.441,533.076 381.441,534.243 377.5,535.5C 377.187,532.753 377.52,530.086 378.5,527.5C 381.865,525.941 385.198,524.608 388.5,523.5 Z"/></g>
<g><path style="opacity:1" fill="#273341" d="M 521.5,523.5 C 529.337,522.968 537.003,523.801 544.5,526C 546.314,528.481 546.98,531.315 546.5,534.5C 539.377,531.906 532.044,531.073 524.5,532C 518.71,535.532 518.043,539.865 522.5,545C 528.091,547.197 533.758,549.197 539.5,551C 551.106,557.145 553.273,565.645 546,576.5C 538.062,582.185 529.229,584.019 519.5,582C 511.102,582.123 507.768,578.29 509.5,570.5C 517.113,574.164 525.113,575.331 533.5,574C 539.668,571.158 541.002,566.825 537.5,561C 530.578,558.137 523.578,555.47 516.5,553C 504.63,540.927 506.297,531.094 521.5,523.5 Z"/></g>
<g><path style="opacity:1" fill="#263240" d="M 426.5,524.5 C 429.518,524.335 432.518,524.502 435.5,525C 439.883,539.688 444.049,554.521 448,569.5C 451.921,554.648 455.754,539.814 459.5,525C 462.5,524.333 465.5,524.333 468.5,525C 469.667,525.5 470.5,526.333 471,527.5C 474.023,541.591 477.356,555.591 481,569.5C 484.868,555.181 488.868,540.848 493,526.5C 496.149,524.638 499.649,523.971 503.5,524.5C 498.401,543.63 492.401,562.463 485.5,581C 481.683,582.023 478.183,581.523 475,579.5C 471.945,565.276 468.278,551.276 464,537.5C 460.487,551.887 456.82,566.221 453,580.5C 449.108,582.067 445.442,581.733 442,579.5C 436.654,561.781 431.154,544.114 425.5,526.5C 425.863,525.817 426.196,525.15 426.5,524.5 Z"/></g>
<g><path style="opacity:1" fill="#f8f8f8" d="M 390.5,555.5 C 396.878,555.295 403.211,555.628 409.5,556.5C 409.374,570.453 402.374,576.286 388.5,574C 384.633,570.34 383.466,565.84 385,560.5C 386.73,558.598 388.563,556.931 390.5,555.5 Z"/></g>
<g><path style="opacity:1" fill="#ff9902" d="M 332.5,603.5 C 348.503,603.333 364.503,603.5 380.5,604C 380.833,604.333 381.167,604.667 381.5,605C 380.112,608.717 379.112,612.55 378.5,616.5C 373.167,616.5 367.833,616.5 362.5,616.5C 362.5,637.167 362.5,657.833 362.5,678.5C 357.833,678.5 353.167,678.5 348.5,678.5C 348.5,657.833 348.5,637.167 348.5,616.5C 343.156,616.666 337.823,616.499 332.5,616C 331.197,611.834 331.197,607.667 332.5,603.5 Z"/></g>
<g><path style="opacity:1" fill="#ff9a10" d="M 565.5,622.5 C 566.675,622.281 567.675,622.614 568.5,623.5C 569.667,625.833 570.833,628.167 572,630.5C 576.022,624.57 581.522,622.07 588.5,623C 589.91,623.368 590.91,624.201 591.5,625.5C 590.097,628.875 588.597,632.209 587,635.5C 581.684,633.456 577.351,634.79 574,639.5C 573.667,652.167 573.333,664.833 573,677.5C 568.667,678.833 564.333,678.833 560,677.5C 559.667,662.833 559.333,648.167 559,633.5C 558.443,631.385 557.609,629.385 556.5,627.5C 559.221,625.266 562.221,623.599 565.5,622.5 Z"/></g>
<g><path style="opacity:1" fill="#ff9907" d="M 395.5,622.5 C 411.731,621.344 421.231,628.677 424,644.5C 426.5,657.395 423,668.228 413.5,677C 398.942,683.743 387.776,680.243 380,666.5C 376.667,656.5 376.667,646.5 380,636.5C 383.492,629.834 388.659,625.168 395.5,622.5 Z"/></g>
<g><path style="opacity:1" fill="#ff9908" d="M 520.5,622.5 C 533.184,620.752 541.684,625.752 546,637.5C 547.239,643.435 547.739,649.435 547.5,655.5C 536.833,655.5 526.167,655.5 515.5,655.5C 515.698,660.262 517.365,664.428 520.5,668C 527.664,670.209 534.664,669.709 541.5,666.5C 542.167,666.833 542.833,667.167 543.5,667.5C 544.214,669.811 545.214,671.978 546.5,674C 537.637,680.038 527.97,681.705 517.5,679C 508.635,675.129 503.802,668.296 503,658.5C 500.724,646.256 503.891,635.756 512.5,627C 515.391,625.726 518.058,624.226 520.5,622.5 Z"/></g>
<g><path style="opacity:1" fill="#ff9905" d="M 437.5,623.5 C 438.833,623.5 440.167,623.5 441.5,623.5C 444.422,637.777 447.089,652.111 449.5,666.5C 451.783,652.421 454.449,638.421 457.5,624.5C 461.833,624.5 466.167,624.5 470.5,624.5C 473.192,638.463 475.692,652.463 478,666.5C 479.831,651.843 482.997,637.51 487.5,623.5C 491.311,624.042 494.978,625.042 498.5,626.5C 493.234,643.798 488.067,661.131 483,678.5C 478.934,679.464 474.767,679.797 470.5,679.5C 468.297,665.819 465.964,652.153 463.5,638.5C 460.371,652.144 457.371,665.81 454.5,679.5C 450.5,679.5 446.5,679.5 442.5,679.5C 438.221,661.55 433.554,643.717 428.5,626C 431.678,625.34 434.678,624.507 437.5,623.5 Z"/></g>
<g><path style="opacity:1" fill="#fffaf7" d="M 397.5,633.5 C 405.357,632.189 409.524,635.522 410,643.5C 411.315,651.839 410.315,659.839 407,667.5C 397.795,671.726 392.795,668.726 392,658.5C 390.709,650.491 391.709,642.824 395,635.5C 395.995,634.934 396.828,634.267 397.5,633.5 Z"/></g>
<g><path style="opacity:1" fill="#fffaf8" d="M 521.5,633.5 C 529.955,632.288 533.955,635.954 533.5,644.5C 527.833,644.5 522.167,644.5 516.5,644.5C 516.316,639.876 517.982,636.209 521.5,633.5 Z"/></g>
</svg>
